<svg width="512" height="512" viewBox="0 0 1024 1024" fill="none" xmlns="http://www.w3.org/2000/svg">
  <rect x="97.5" y="97.4697" width="829" height="829.06" rx="205" fill="url(#paint0_linear_1327_135)"/>
  <g clip-path="url(#clip0_1327_135)">
    <path fill-rule="evenodd" clip-rule="evenodd" d="M769.317 736.227C733.466 655.555 683.674 602.782 643.843 570.912C673.714 566.931 707.575 554.981 755.376 528.091L770.316 520.121L763.346 503.19L725.505 416.548L716.544 396.627L697.624 407.587C696.624 408.587 656.792 428.498 610.982 423.518C660.773 410.578 697.624 365.766 697.624 311.984C697.687 296.666 694.718 281.486 688.884 267.322C683.052 253.157 674.472 240.287 663.64 229.455C652.808 218.623 639.938 210.043 625.773 204.21C611.608 198.377 596.429 195.407 581.11 195.471C517.378 195.471 465.587 247.253 465.587 311.984C465.587 337.876 474.547 361.776 489.487 381.697C426.755 424.518 408.825 495.229 403.845 557.962C401.855 573.893 400.855 578.873 400.855 580.863C361.023 662.535 275.381 674.485 271.391 675.475L246.5 678.456L255.46 701.366L296.292 811.9L301.272 827.831L318.202 823.85C442.686 797.96 487.498 740.198 523.349 693.387C610.982 737.208 642.852 807.92 642.852 807.92C645.842 811.9 652.812 825.841 652.812 825.841L669.743 814.881L761.356 761.109L777.296 752.139L769.317 736.227Z" fill="black"/>
    <path fill-rule="evenodd" clip-rule="evenodd" d="M581.101 237.302C622.923 237.302 655.793 270.163 655.793 311.985C655.793 352.816 622.923 385.677 581.101 385.677C571.418 385.699 561.825 383.808 552.875 380.112C543.924 376.417 535.791 370.99 528.944 364.142C522.097 357.295 516.67 349.162 512.973 340.212C509.278 331.261 507.387 321.669 507.409 311.985C507.409 270.163 540.27 237.302 581.101 237.302ZM668.734 770.07C652.794 741.198 612.963 688.426 525.33 650.585C522.349 648.594 519.35 647.586 516.369 647.586C511.39 647.586 506.409 650.585 503.42 653.565L494.459 665.515C462.598 708.328 426.747 756.129 327.154 782.039L300.272 709.337C335.124 699.377 400.855 671.477 435.706 597.794C438.697 593.813 440.687 583.854 442.677 561.943C449.647 480.29 471.558 436.46 519.36 409.578C531.31 416.549 544.25 422.519 559.191 425.508V430.489C560.19 436.469 560.19 442.439 562.181 447.419L566.17 456.38L575.131 459.37C623.922 476.3 671.724 462.359 697.624 451.409L720.525 502.191C647.823 540.032 615.962 535.061 578.121 529.081C578.121 529.081 569.16 528.091 566.17 528.091C555.211 528.091 549.24 536.061 547.25 547.012C545.259 558.962 556.21 563.942 556.21 563.942C560.2 567.923 660.773 605.773 726.505 736.228L668.734 770.07Z" fill="#F9D817"/>
  </g>
  <defs>
    <linearGradient id="paint0_linear_1327_135" x1="512" y1="-333.5" x2="512" y2="926.53" gradientUnits="userSpaceOnUse">
      <stop stop-color="#0C0D6D"/>
      <stop offset="1" stop-color="#1C51BA"/>
    </linearGradient>
    <clipPath id="clip0_1327_135">
      <rect width="531" height="633.06" fill="white" transform="translate(246.5 195.47)"/>
    </clipPath>
  </defs>
</svg>
