<svg width="2427" height="1346" viewBox="0 0 2427 1346" fill="none" xmlns="http://www.w3.org/2000/svg">
<g clip-path="url(#clip0_3132_64)">
<path fill-rule="evenodd" clip-rule="evenodd" d="M1537.65 241.395C1486.03 205.118 1395.33 213.497 1343.71 244.183C1241.85 301.393 1176.26 408.835 1166.49 514.876C1195.79 439.522 1265.55 357.202 1345.1 332.093C1412.07 309.759 1481.84 329.304 1519.5 378.136C1615.79 491.154 1527.88 655.806 1527.88 655.806C1594.86 593.006 1635.31 500.934 1629.75 401.857L1868.34 814.868H1467.87C1573.91 760.459 1636.71 648.828 1645.09 539.986C1607.4 633.472 1512.53 732.535 1405.07 731.148C1347.87 731.148 1294.85 701.836 1266.94 650.216C1226.49 577.663 1247.41 475.798 1280.9 407.434C1205.56 475.798 1169.28 579.064 1183.22 687.906C1194.38 735.324 1216.71 786.957 1262.75 814.868H927.873L1398.09 0.000976562L1537.65 241.395Z" fill="#0D116E"/>
<path fill-rule="evenodd" clip-rule="evenodd" d="M1195.79 859.535C1145.56 746.504 1075.79 672.563 1019.98 627.908C1061.84 622.331 1109.28 605.587 1176.26 567.909L1197.19 556.742L1187.42 533.021L1134.4 411.623L1121.85 383.712L1095.34 399.069C1093.94 400.469 1038.13 428.367 973.941 421.39C1043.71 403.258 1095.34 340.471 1095.34 265.117C1095.43 243.653 1091.27 222.385 1083.09 202.538C1074.92 182.691 1062.9 164.659 1047.72 149.482C1032.55 134.305 1014.51 122.283 994.666 114.111C974.82 105.938 953.551 101.776 932.088 101.866C842.791 101.866 770.225 174.419 770.225 265.117C770.225 301.393 782.779 334.881 803.713 362.792C715.816 422.79 690.694 521.867 683.716 609.763C680.927 632.084 679.527 639.062 679.527 641.85C623.718 756.283 503.721 773.027 498.131 774.415L463.255 778.591L475.81 810.691L533.02 965.564L539.998 987.885L563.719 982.308C738.137 946.031 800.924 865.099 851.156 799.511C973.941 860.91 1018.6 959.987 1018.6 959.987C1022.79 965.564 1032.55 985.096 1032.55 985.096L1056.27 969.74L1184.64 894.398L1206.97 881.831L1195.79 859.535Z" fill="black"/>
<path fill-rule="evenodd" clip-rule="evenodd" d="M932.074 160.477C990.672 160.477 1036.73 206.519 1036.73 265.117C1036.73 322.327 990.672 368.37 932.074 368.37C918.506 368.4 905.066 365.751 892.525 360.573C879.984 355.395 868.589 347.79 858.995 338.196C849.401 328.602 841.797 317.207 836.619 304.666C831.441 292.125 828.791 278.685 828.822 265.117C828.822 206.519 874.865 160.477 932.074 160.477ZM1054.86 906.953C1032.53 866.501 976.717 792.56 853.931 739.539C849.755 736.751 845.553 735.337 841.377 735.337C834.399 735.337 827.421 739.539 823.232 743.715L810.677 760.459C766.035 820.445 715.803 887.421 576.261 923.723L538.597 821.859C587.428 807.903 679.527 768.812 728.358 665.572C732.547 659.995 735.336 646.04 738.124 615.34C747.89 500.934 778.59 439.522 845.566 401.858C862.31 411.624 880.442 419.989 901.375 424.178V431.156C902.776 439.535 902.776 447.9 905.564 454.878L911.154 467.433L923.709 471.622C992.073 495.344 1059.05 475.811 1095.34 460.468L1127.43 531.62C1025.56 584.641 980.919 577.676 927.898 569.298C927.898 569.298 915.343 567.91 911.154 567.91C895.798 567.91 887.432 579.077 884.644 594.42C881.855 611.164 897.199 618.142 897.199 618.142C902.789 623.719 1043.71 676.752 1135.8 859.536L1054.86 906.953Z" fill="#F9D817"/>
<path fill-rule="evenodd" clip-rule="evenodd" d="M135.473 1226.49H97.8091L108.963 1195.82C111.752 1186.04 114.54 1176.26 115.941 1166.5H117.329C118.716 1176.26 121.518 1184.64 124.306 1193L135.473 1226.49ZM195.485 1285.1L139.676 1123.24H96.4213L42 1285.1H79.6773L89.4435 1255.79H145.253L155.019 1285.1H195.485ZM311.292 1204.17C311.292 1240.45 290.359 1254.4 273.628 1254.4C247.117 1254.4 235.95 1234.87 235.95 1202.78C235.95 1169.29 254.082 1153.94 273.628 1153.94C298.737 1153.94 311.292 1172.08 311.292 1204.17ZM351.758 1201.38C351.758 1145.57 319.658 1120.45 276.403 1120.45C233.149 1120.45 196.872 1153.94 196.872 1206.96C196.872 1257.19 220.594 1287.89 270.826 1287.89C315.481 1287.89 351.758 1254.4 351.758 1201.38ZM372.691 1285.1V1123.24H410.368V1251.61H457.799V1285.1H372.691ZM549.897 1285.1H519.198L549.897 1123.24H580.597L549.897 1285.1ZM683.85 1285.1H653.15L668.506 1211.13C671.295 1195.8 668.506 1190.21 660.128 1190.21C644.784 1190.21 623.851 1227.9 618.261 1254.4L612.684 1285.1H581.985L594.539 1222.3C595.94 1212.55 602.918 1177.67 604.306 1166.49H633.605C632.217 1173.46 629.415 1184.62 623.838 1202.77C635.005 1181.85 650.349 1163.7 674.07 1163.7C696.391 1163.7 703.369 1180.45 699.193 1202.77L683.85 1285.1ZM791.291 1188.83C785.701 1187.44 780.124 1186.04 774.547 1186.04C761.993 1186.04 756.416 1191.61 756.416 1199.99C756.416 1213.95 787.102 1220.91 787.102 1247.44C787.102 1266.97 770.358 1287.89 732.694 1287.89C725.716 1287.89 718.738 1286.5 711.76 1286.5L717.338 1259.98C722.928 1261.37 729.892 1262.79 735.469 1262.79C748.024 1262.79 756.403 1258.59 756.403 1250.23C756.403 1233.48 725.703 1230.69 725.703 1202.78C725.703 1180.46 742.447 1163.72 775.935 1163.72C784.314 1163.72 789.891 1163.72 796.868 1165.1L791.291 1188.83ZM887.566 1190.21H859.668L849.902 1243.23C847.113 1258.59 848.501 1261.37 858.267 1261.37C863.844 1261.37 869.434 1261.37 873.624 1259.98L870.835 1285.11C862.457 1286.5 854.091 1287.9 845.713 1287.9C820.59 1287.9 813.625 1275.33 819.202 1247.45L828.969 1190.23H809.436L813.625 1166.52H834.559L841.536 1130.24L872.223 1123.25L863.844 1166.52H891.755L887.566 1190.21ZM979.652 1190.21L978.264 1197.2C972.674 1222.31 951.754 1261.37 935.01 1261.37C929.42 1261.37 926.631 1257.19 926.631 1244.62C926.631 1219.51 939.186 1187.43 965.696 1187.43C971.286 1187.43 975.475 1188.83 979.652 1190.21ZM1013.14 1167.89C1000.59 1165.1 985.229 1163.72 971.273 1163.72C919.654 1163.72 894.531 1205.57 894.531 1250.23C894.531 1276.72 904.297 1287.89 922.429 1287.89C946.151 1287.89 962.895 1264.18 972.661 1247.44C968.485 1264.18 964.283 1275.32 961.507 1285.1H992.207C996.396 1254.4 1003.37 1222.31 1013.14 1167.89ZM1124.77 1285.1H1095.47L1109.41 1211.13C1112.2 1195.8 1109.41 1190.21 1102.44 1190.21C1085.69 1190.21 1064.76 1227.9 1059.18 1254.4L1053.61 1285.1H1022.91L1035.46 1222.3C1038.25 1212.55 1043.84 1177.67 1045.23 1166.49H1074.53C1073.14 1173.46 1070.34 1184.62 1064.76 1202.77C1075.93 1181.85 1092.67 1163.7 1114.99 1163.7C1137.33 1163.7 1144.29 1180.45 1140.11 1202.77L1124.77 1285.1ZM1237.79 1190.21H1209.88L1198.72 1243.23C1197.34 1258.59 1198.72 1261.37 1208.49 1261.37C1214.08 1261.37 1218.26 1261.37 1223.85 1259.98L1219.66 1285.11C1212.68 1286.5 1202.91 1287.9 1195.94 1287.9C1170.83 1287.9 1163.85 1275.33 1168.03 1247.45L1179.19 1190.23H1159.66L1163.85 1166.52H1183.38L1190.36 1130.24L1222.46 1123.25L1214.08 1166.52H1241.98L1237.79 1190.21ZM1483.39 1285.1H1449.9L1454.07 1208.35C1454.07 1192.99 1455.46 1180.46 1456.86 1169.28H1455.47C1452.69 1180.45 1447.1 1191.6 1441.52 1204.16L1399.67 1285.09H1370.35L1360.57 1209.72C1359.19 1197.18 1357.79 1181.84 1357.79 1169.27C1353.61 1183.22 1350.82 1197.18 1345.22 1211.12L1322.9 1285.09H1290.8L1345.21 1123.22H1381.51L1392.65 1206.94C1394.04 1218.11 1394.04 1229.29 1394.04 1240.43C1399.64 1227.89 1403.82 1219.51 1409.39 1206.94L1452.66 1123.22H1487.54L1483.39 1285.1ZM1583.82 1197.2C1583.82 1209.75 1568.49 1215.34 1541.97 1216.74C1546.15 1201.38 1555.93 1186.04 1571.28 1186.04C1578.25 1186.04 1583.82 1190.21 1583.82 1197.2ZM1613.14 1193C1613.14 1179.07 1603.38 1163.72 1574.07 1163.72C1537.79 1163.72 1507.09 1197.2 1507.09 1247.44C1507.09 1273.93 1519.66 1287.89 1548.95 1287.89C1565.69 1287.89 1581.05 1285.1 1593.6 1279.51V1255.8C1582.82 1261.35 1570.86 1264.22 1558.73 1264.18C1543.37 1264.18 1537.81 1259.98 1537.81 1246.05V1236.27C1585.24 1234.87 1613.14 1220.91 1613.14 1193ZM1696.86 1188.83C1691.28 1187.44 1685.71 1186.04 1680.11 1186.04C1667.54 1186.04 1661.98 1191.61 1661.98 1199.99C1661.98 1213.95 1692.68 1220.91 1692.68 1247.44C1692.68 1266.97 1675.94 1287.89 1638.27 1287.89C1631.28 1287.89 1624.32 1286.5 1617.35 1286.5L1622.93 1259.98C1628.5 1261.37 1635.5 1262.79 1641.06 1262.79C1653.63 1262.79 1661.98 1258.59 1661.98 1250.23C1661.98 1233.48 1631.28 1230.69 1631.28 1202.78C1631.28 1180.46 1648.02 1163.72 1681.51 1163.72C1689.89 1163.72 1695.47 1163.72 1702.46 1165.1L1696.86 1188.83ZM1786.17 1188.83C1781.96 1187.44 1776.39 1186.04 1770.81 1186.04C1758.24 1186.04 1752.65 1191.61 1752.65 1199.99C1752.65 1213.95 1783.35 1220.91 1783.35 1247.44C1783.35 1266.97 1765.22 1287.89 1728.94 1287.89C1720.58 1287.89 1713.59 1286.5 1708.02 1286.5L1713.6 1259.98C1719.18 1261.37 1726.17 1262.79 1731.73 1262.79C1744.3 1262.79 1751.26 1258.59 1751.26 1250.23C1751.26 1233.48 1720.59 1230.69 1720.59 1202.78C1720.59 1180.46 1737.33 1163.72 1772.21 1163.72C1779.18 1163.72 1786.17 1163.72 1791.74 1165.1L1786.17 1188.83ZM1879.64 1197.2C1879.64 1209.75 1865.68 1215.34 1837.76 1216.74C1841.96 1201.38 1851.72 1186.04 1867.07 1186.04C1875.46 1186.04 1879.64 1190.21 1879.64 1197.2ZM1908.95 1193C1908.95 1179.07 1900.57 1163.72 1871.29 1163.72C1833.6 1163.72 1804.28 1197.2 1804.28 1247.44C1804.28 1273.93 1815.45 1287.89 1846.16 1287.89C1861.45 1287.95 1876.6 1285.11 1890.82 1279.51V1255.8C1879.65 1261.38 1867.08 1264.18 1855.94 1264.18C1839.2 1264.18 1833.6 1259.98 1833.6 1246.05C1833.6 1243.23 1833.6 1239.06 1834.98 1236.27C1881.04 1234.87 1908.95 1220.91 1908.95 1193ZM2019.17 1285.1H1989.88L2003.81 1211.13C2006.6 1195.8 2003.81 1190.21 1996.85 1190.21C1980.1 1190.21 1959.18 1227.9 1953.58 1254.4L1948 1285.1H1917.3L1929.87 1222.3C1932.66 1212.55 1938.24 1177.67 1939.65 1166.49H1968.94C1967.55 1173.46 1964.76 1184.62 1959.18 1202.77C1970.32 1181.85 1987.07 1163.7 2009.41 1163.7C2031.74 1163.7 2038.7 1180.45 2034.52 1202.77L2019.17 1285.1ZM2137.78 1190.21L2136.39 1197.2C2130.81 1222.31 2109.89 1261.37 2093.15 1261.37C2086.16 1261.37 2083.37 1257.19 2083.37 1244.62C2083.37 1219.51 2095.94 1187.43 2123.82 1187.43C2129.41 1187.43 2133.6 1188.83 2137.78 1190.21ZM2171.27 1167.89C2157.49 1165.12 2143.47 1163.72 2129.41 1163.72C2076.39 1163.72 2052.66 1205.57 2052.66 1250.23C2052.66 1276.72 2062.44 1287.89 2080.57 1287.89C2104.28 1287.89 2121.02 1264.18 2130.8 1247.44C2123.81 1266.97 2121.02 1275.32 2118.23 1289.29C2114.06 1310.21 2101.49 1318.6 2079.17 1318.6C2068 1318.6 2055.43 1315.81 2045.68 1311.61L2038.69 1339.52C2048.47 1343.7 2061.03 1345.1 2073.56 1345.1C2119.62 1345.1 2140.54 1325.57 2147.53 1292.08L2171.27 1167.89ZM2257.77 1197.2C2257.77 1209.75 2243.82 1215.34 2215.92 1216.74C2220.1 1201.38 2229.88 1186.04 2246.62 1186.04C2253.6 1186.04 2257.77 1190.21 2257.77 1197.2ZM2288.47 1193C2288.47 1179.07 2278.72 1163.72 2249.41 1163.72C2211.74 1163.72 2182.43 1197.2 2182.43 1247.44C2182.43 1273.93 2193.6 1287.89 2224.29 1287.89C2239.57 1287.95 2254.72 1285.11 2268.94 1279.51V1255.8C2258.1 1261.2 2246.17 1264.06 2234.06 1264.18C2217.32 1264.18 2211.74 1259.98 2211.74 1246.05C2211.74 1243.23 2213.13 1239.06 2213.13 1236.27C2259.16 1234.87 2288.47 1220.91 2288.47 1193ZM2377.77 1193C2359.64 1187.43 2338.71 1219.53 2331.74 1259.98L2326.14 1285.11H2296.85L2307.99 1222.31C2310.78 1212.56 2316.37 1177.68 2319.16 1166.5H2347.07C2345.66 1174.87 2342.87 1186.04 2337.29 1202.78C2349.86 1177.67 2363.81 1160.9 2383.35 1163.72L2377.77 1193Z" fill="black"/>
</g>
<defs>
<clipPath id="clip0_3132_64">
<rect width="2426.47" height="1345.09" fill="white"/>
</clipPath>
</defs>
</svg>
